<svg id="Layer_1" data-name="Layer 1" xmlns="http://www.w3.org/2000/svg" viewBox="0 0 1920 1080"><defs><style>.cls-1{fill:#9abfe2;}.cls-2{fill:#bad4f4;}.cls-3{fill:#c8dbf4;}.cls-4{fill:#dfebfd;}.cls-5{fill:#b7d3f3;}</style></defs><path class="cls-1" d="M1152.9,672.53v6.27c0,2.2-.71,4-1.58,4H922.58c-.87,0-1.58-1.79-1.58-4v-6.27c0-2.19.71-4,1.58-4h228.74C1152.19,668.55,1152.9,670.34,1152.9,672.53Z"/><path class="cls-2" d="M1152.9,672.53v6.27c0,2.2-.65,4-1.45,4H969.85c-.79,0-1.44-1.79-1.44-4v-6.27c0-2.19.65-4,1.44-4h181.6C1152.25,668.55,1152.9,670.34,1152.9,672.53Z"/><rect class="cls-3" x="932.61" y="682.79" width="162.39" height="236.7"/><rect class="cls-4" x="978.12" y="682.79" width="162.39" height="236.7"/><path class="cls-5" d="M1131.79,906.42H986.85V689.48h144.94Zm-143.38-1.57h141.81V691H988.41Z"/><rect class="cls-5" x="987.63" y="761.24" width="143.38" height="1.56"/><rect class="cls-5" x="987.63" y="834.41" width="143.38" height="1.57"/><path class="cls-5" d="M1074,703.47H1047.4a2.35,2.35,0,0,1-2.34-2.35h0a2.35,2.35,0,0,1,2.34-2.35H1074a2.36,2.36,0,0,1,2.35,2.35h0A2.36,2.36,0,0,1,1074,703.47Z"/><path class="cls-5" d="M1074,775H1047.4a2.34,2.34,0,0,1-2.34-2.34h0a2.35,2.35,0,0,1,2.34-2.35H1074a2.35,2.35,0,0,1,2.35,2.35h0A2.35,2.35,0,0,1,1074,775Z"/><path class="cls-5" d="M1074,849.6H1047.4a2.35,2.35,0,0,1-2.34-2.35h0a2.35,2.35,0,0,1,2.34-2.35H1074a2.36,2.36,0,0,1,2.35,2.35h0A2.36,2.36,0,0,1,1074,849.6Z"/></svg>