<svg id="Layer_1" data-name="Layer 1" xmlns="http://www.w3.org/2000/svg" viewBox="0 0 1920 1080"><defs><style>.cls-1{fill:#8cb4f4;}.cls-2{fill:#233862;}.cls-3{fill:#ffb27d;}.cls-4{fill:#0f2549;}.cls-5{fill:#2b478b;}.cls-6{fill:#ed975d;}.cls-7{fill:#fff;}.cls-8{fill:#ebf3ff;}</style></defs><path class="cls-1" d="M942.19,1082.29h.38a5.21,5.21,0,0,0,5.27-5.58l-21-209.33L908.59,869l30.1,210.45A3.42,3.42,0,0,0,942.19,1082.29Z"/><path class="cls-1" d="M740.36,1082.29H740a5.22,5.22,0,0,1-5.28-5.58l21-209.33L774,869l-30.09,210.45A3.42,3.42,0,0,1,740.36,1082.29Z"/><path class="cls-1" d="M1090.06,1082.29h.38a5.21,5.21,0,0,0,5.27-5.58l-21-209.33L1056.46,869l30.1,210.45A3.42,3.42,0,0,0,1090.06,1082.29Z"/><path class="cls-1" d="M746.6,836.93,709.4,653.19c-4.78-24.87,15.84-47.62,42.6-47l71.75,1.64a56.68,56.68,0,0,1,53.16,40.92l54.43,188.19Z"/><path class="cls-1" d="M769.11,836.93l-37.2-183.74c-4.78-24.87,15.83-47.62,42.6-47l71.75,1.64a56.68,56.68,0,0,1,53.16,40.92l54.43,188.19Z"/><path class="cls-1" d="M763.36,836.93h271.12a16.76,16.76,0,0,1,16.76,16.76v16.75a0,0,0,0,1,0,0H763.36a16.76,16.76,0,0,1-16.76-16.76v0A16.75,16.75,0,0,1,763.36,836.93Z" transform="translate(1797.83 1707.36) rotate(-180)"/><rect class="cls-1" x="881.84" y="836.93" width="197.68" height="33.51" rx="14.97" transform="translate(1961.36 1707.36) rotate(-180)"/><path class="cls-2" d="M993.91,798.48c-15.36,26.72-34.67,37-34.67,37H878.87S1005.63,778.08,993.91,798.48Z"/><path class="cls-3" d="M1093,1064c-.87,8.43,10.86,10.61,24.46,11.44s9.46,3.56,28.07,7.14,26.14-1.44,27.52-3.95c1.22-2.22-7.41-5.81-16.61-9.86l-3.47-1.55c-10.35-4.69-16.09-14.08-24.1-22.81-7.6-8.27-14.61-34.58-14.61-34.58l-25.28-5.68s6.86,23.68,9.22,33.78c1.39,6-.82,12.55-2.78,17.57A33.23,33.23,0,0,0,1093,1064Z"/><path class="cls-4" d="M1117.49,1075.47c13.6.82,9.46,3.56,28.07,7.14s26.14-1.44,27.52-3.95c1.22-2.22-7.41-5.81-16.61-9.86l-.14.15a53.16,53.16,0,0,1-28.25,0c-12.31-3.48-24.16-11-32.63-13.46a33.23,33.23,0,0,0-2.42,8.5C1092.16,1072.46,1103.89,1074.64,1117.49,1075.47Z"/><path class="cls-2" d="M1054.72,771.09c-13.61-9.55-103.61-26.58-149.53-31.51l-50.77-44.06s-43.21,64-43.55,113c-.16,22.83,10.36,25.09,10.36,25.1S984,834.79,991.1,835.52c11.67,1.21,27.07,30.29,30.92,56.79s71.71,134.25,71.71,134.25,14.16,4.53,20.7,4.15c7-.42,10.3-2.77,10.3-2.77S1085.4,792.64,1054.72,771.09Z"/><path class="cls-3" d="M1050.94,1064c-.87,8.43,10.85,10.61,24.45,11.44s9.46,3.56,28.08,7.14,26.14-1.44,27.51-3.95c1.23-2.22-7.4-5.81-16.6-9.86l-3.48-1.55c-10.35-4.69-16.08-14.08-24.1-22.81-7.59-8.27-14.6-34.58-14.6-34.58l-25.28-5.68s6.86,23.68,9.22,33.78c1.39,6-.82,12.55-2.78,17.57A32.83,32.83,0,0,0,1050.94,1064Z"/><path class="cls-2" d="M1075.39,1075.47c13.61.82,9.46,3.56,28.08,7.14s26.14-1.44,27.51-3.95c1.23-2.22-7.4-5.81-16.6-9.86l-.15.15a53.16,53.16,0,0,1-28.25,0c-12.3-3.48-24.15-11-32.62-13.46a32.83,32.83,0,0,0-2.42,8.5C1050.07,1072.46,1061.79,1074.64,1075.39,1075.47Z"/><path class="cls-5" d="M1012.25,771.09c-11.82-8.29-47.37-14.73-86.61-19.51a26.39,26.39,0,0,1-22.41-19.81h0L812,695.52s-43.21,64-43.56,113c-.16,22.83,10.36,25.09,10.36,25.1s162.74,1.21,169.87,1.94c11.68,1.21,27.08,30.29,30.93,56.79s71.71,134.25,71.71,134.25,14.15,4.53,20.69,4.15c7-.42,10.3-2.77,10.3-2.77S1042.94,792.64,1012.25,771.09Z"/><path class="cls-2" d="M890.11,429.61c-12.54-6.59-31.62-7.48-34.73-7.9-37.1-5-59.43,48.93-60.74,65.27-2.42,30.11-18.35,34.7-40.78,53.56-45,37.81-31.77,81.75-7.19,98.08,14.75,9.79,40.75,0,40.75,0,.37.25,71.1-39.55,106-58.74C945.66,572.45,922.08,446.39,890.11,429.61Z"/><path class="cls-3" d="M882.38,561.33c.16.08-16.49,7.65-28.51,3.68-11.31-3.72-21.26-20.74-21.1-20.77,4.9-.71,9.89-5.55,11.28-34.24l2.18.55,36.53,9.23s-1.44,11.58-2,22.52C880.22,551.49,880.32,560.24,882.38,561.33Z"/><path class="cls-6" d="M882.76,519.78s0,2.39-1.36,13.15c-20.67-5.21-29.78-12.06-36.2-19.9Z"/><path class="cls-3" d="M890.56,521.24s-48.32,7.87-52.75-22.3-13.66-49.46,17-55.76,38.36,4.33,42.29,14S903,518.42,890.56,521.24Z"/><path class="cls-2" d="M890.61,441.92s-22,34.63-41.53,42.84-29.21,4-29.21,4a82.47,82.47,0,0,0,11.23-31.65,14.86,14.86,0,0,1,9.17-11.94C854.33,439.57,881.52,430.7,890.61,441.92Z"/><path class="cls-2" d="M871.33,445.26s12.86,6.6,18.16,12.78c5.11,6,11,22.14,10.59,29.41,0,0,6.35-34.83-6.87-46.8C879.2,428,871.33,445.26,871.33,445.26Z"/><path class="cls-7" d="M921,635c-1.47,98.22-.4,77.69-11.15,87-2.58,2.24-9.86,3.58-19.44,4.22-30.12,2-83.05-3-85.07-8.53-6.94-19.26-2-25.24-7.84-54.73-.6-3.13-1.35-6.53-2.22-10.22-4.84-20.25-9.54-27.14,7.6-59.67,15.55-29.47,33.83-53.41,35.28-52.54,41,24.34,42.43,3.93,42.43,3.93S921.75,587.12,921,635Z"/><path class="cls-7" d="M880.62,544.49s42,7.12,46.93,25.29l34.12,125s-21.45,3.85-31.37-6.06-34.49-92-34.49-92Z"/><path class="cls-8" d="M890.44,726.25c-30.12,2-83.05-3-85.07-8.53-6.94-19.26-2-25.24-7.84-54.73l14.53-40.9s-2.4,45.55,11,57.53,55,23.13,61.53,33.14C887.77,717.56,889.84,722.38,890.44,726.25Z"/><path class="cls-3" d="M855.94,707.09s29.71-6.62,34.5-4,16.51,12.24,18,15.58-10.68-2.54-14.62-3.6c-2.56-.68-9.29,1.66-12.62,2.77-14,4.67-22.62,2.27-22.62,2.27Z"/><path class="cls-7" d="M838.19,540.56s-42.05,2.45-55.86,21.71c-19.44,27.12-58,142.67-35.9,158.08,24.89,17.36,113.28,4.55,113.28,4.55s2.94-13.75-1.15-20.4S788,687.1,784.89,684s38.37-59.85,38.37-69.06S838.19,540.56,838.19,540.56Z"/><path class="cls-3" d="M891.88,711.38s6.22,8,8.26,9a6.09,6.09,0,0,0,3.36.72l-4.19-7.55Z"/><path class="cls-3" d="M890.44,703.11l18.1,8.79a3.23,3.23,0,0,1-3,1.16c-2.23-.1-7.85-2.16-7.85-2.16Z"/></svg>