<svg id="Layer_1" data-name="Layer 1" xmlns="http://www.w3.org/2000/svg" viewBox="0 0 221.66 94.08"><defs><style>.cls-1{fill:#ed7d2b;}.cls-2{fill:#f99746;}.cls-3{fill:#fff;}</style></defs><path class="cls-1" d="M1002.59,856.18H916.2a6.9,6.9,0,0,1,6.89-6.89h79.5Z" transform="translate(-916.2 -762.1)"/><polygon class="cls-1" points="86.14 0 219.69 0 187.66 94.08 53.23 94.08 86.14 0"/><polygon class="cls-2" points="221.66 0 189.63 94.08 55.2 94.08 88.1 0 221.66 0"/><path class="cls-3" d="M1065.86,808.27a8.69,8.69,0,0,1-8,6.51c-3.6,0-5.84-2.92-5-6.51a8.68,8.68,0,0,1,8-6.51C1064.45,801.76,1066.69,804.67,1065.86,808.27Z" transform="translate(-916.2 -762.1)"/></svg>