<svg id="Layer_1" data-name="Layer 1" xmlns="http://www.w3.org/2000/svg" viewBox="0 0 1920 1080"><defs><style>.cls-1{fill:#182d4f;}</style></defs><rect class="cls-1" x="735.89" y="711.18" width="594.2" height="21.17" rx="7.77"/><path class="cls-1" d="M1340,1081l.25,0a5.37,5.37,0,0,0,4.75-6L1292.8,722l-19.09.55,61.36,355A4.38,4.38,0,0,0,1340,1081Z"/><path class="cls-1" d="M720.75,1081l-.25,0a5.37,5.37,0,0,1-4.75-6l52.16-353,19.09.55-61.36,355A4.38,4.38,0,0,1,720.75,1081Z"/><path class="cls-1" d="M841.49,1081l-.25,0a5.36,5.36,0,0,1-4.74-6l52.15-353,19.1.55-61.37,355A4.38,4.38,0,0,1,841.49,1081Z"/></svg>