<svg id="Layer_1" data-name="Layer 1" xmlns="http://www.w3.org/2000/svg" viewBox="0 0 534 530"><defs><style>.cls-1{fill:#ff735d;}.cls-2{fill:#1a2e35;}.cls-3,.cls-4{opacity:0.3;}.cls-5{fill:#375a64;}.cls-6{fill:#e1e1e1;}.cls-7{fill:#fff;}.cls-8{fill:#ffbf9d;}.cls-9{fill:#ff9a6c;}</style></defs><path class="cls-1" d="M316.49,371.35l36.05-35.64L288.25,225.6a62.13,62.13,0,0,0-24.68-17.16l-22.64-8.61-56.29-10.32-40,15.74a23.9,23.9,0,0,0-15,25.05l10.45,88,6.16,114.59L291.54,407.7l-14.62-42.38.49-66.08Z"/><path class="cls-2" d="M278.26,362.5c.34,0,.42-22.89.19-51.12s-.69-51.12-1-51.12-.43,22.89-.2,51.13S277.92,362.51,278.26,362.5Z"/><path class="cls-1" d="M272.94,379.3,185.19,344a20.06,20.06,0,0,1-12.51-17.08l-6.42-84.13S167,207,144.67,205.25l-12.71,5c-16.44,8.73-20.51,32.66-18.27,51.13,3.18,26.24,4.5,63.39,8.06,86.17,2.91,18.63,14.1,33.37,31.82,39.82l108.08,23.4Z"/><path class="cls-2" d="M167.52,255.6a12.54,12.54,0,0,1,.27,1.93q.21,2.06.57,5.54c.45,4.93,1.08,11.88,1.85,20.41s1.63,18.9,2.6,30.27c.24,2.85.49,5.76.74,8.75a65.67,65.67,0,0,0,1.12,9,14.92,14.92,0,0,0,4.36,7.88,29.73,29.73,0,0,0,8.1,5c24.2,10.47,46.5,19.12,62.68,25.18L269,376.68l5.23,1.93a12.51,12.51,0,0,1,1.8.74,11.41,11.41,0,0,1-1.88-.52l-5.3-1.72c-4.59-1.52-11.21-3.8-19.35-6.73-16.28-5.87-38.62-14.39-62.89-24.89a30.45,30.45,0,0,1-8.41-5.26,16.08,16.08,0,0,1-4.68-8.47,66.13,66.13,0,0,1-1.12-9.16c-.23-3-.47-5.91-.69-8.76-.89-11.38-1.68-21.64-2.35-30.3s-1.13-15.49-1.49-20.43c-.14-2.33-.26-4.19-.34-5.56A11.55,11.55,0,0,1,167.52,255.6Z"/><path class="cls-2" d="M117.24,301.34a4.37,4.37,0,0,1,.18,1.13c.07.88.17,1.95.29,3.25.26,3,.61,7,1,11.93s1.09,11,2,17.66a169.29,169.29,0,0,0,4,21.31A31.76,31.76,0,0,0,129,366.78a58.21,58.21,0,0,0,6.55,8.05,56.18,56.18,0,0,0,14,10.54c9,4.66,15.51,4.73,15.42,5a4.34,4.34,0,0,1-1.14,0,25.94,25.94,0,0,1-3.25-.42,43,43,0,0,1-11.4-3.86,55.31,55.31,0,0,1-14.44-10.52,58.06,58.06,0,0,1-6.74-8.17,32.85,32.85,0,0,1-4.46-10.49,159.65,159.65,0,0,1-3.9-21.49c-.82-6.65-1.34-12.66-1.72-17.72s-.57-9.15-.67-12c0-1.3,0-2.38-.07-3.26A4.18,4.18,0,0,1,117.24,301.34Z"/><path class="cls-2" d="M154.77,360.21c-.12,0,.25-1.91,1.59-4.68a30.24,30.24,0,0,1,17.81-15.2c2.94-.89,4.85-1,4.87-.85s-1.81.57-4.6,1.63a34.17,34.17,0,0,0-17.35,14.82C155.6,358.51,155,360.28,154.77,360.21Z"/><g class="cls-3"><path d="M247.72,369.27c-9.38-5.3-18.56-9.37-28.37-13.83s-19.43-10.18-25.85-18.84c-12.11-16.32-10.73-39.88-23.12-56q1.22,16.25,2.42,32.49c.75,9.93-.77,19.74,5.62,26.49,5.39,5.68,15.89,10,23.32,12.49,14.95,4.93,31,12.25,46,17.18"/></g><polygon class="cls-4" points="277.43 266.46 285.02 313.28 277.84 300.02 277.43 266.46"/><path class="cls-5" d="M164.87,237.57a8,8,0,0,1-2,.16l-5.54.14c-4.67.12-11.12.35-18.22.86s-13.53,1.2-18.17,1.75l-5.5.65a7.78,7.78,0,0,1-2,.13,9,9,0,0,1,2-.49c1.28-.26,3.15-.59,5.46-1,4.63-.71,11.06-1.51,18.19-2s13.61-.64,18.29-.59c2.34,0,4.23.08,5.54.16A9,9,0,0,1,164.87,237.57Z"/><path class="cls-5" d="M167.37,282.38c0,.26-11.48,1.42-25.69,2.59s-25.75,1.92-25.77,1.67,11.48-1.42,25.69-2.6S167.35,282.12,167.37,282.38Z"/><path class="cls-5" d="M171.6,329.49a10.24,10.24,0,0,1-1.82,1c-1.2.62-3,1.44-5.19,2.38a108.17,108.17,0,0,1-36.61,8.2c-2.41.1-4.36.11-5.71.05a9.19,9.19,0,0,1-2.09-.16,8.83,8.83,0,0,1,2.09-.2c1.34-.06,3.28-.17,5.67-.35a131.39,131.39,0,0,0,18.5-2.75,132.84,132.84,0,0,0,17.91-5.4c2.24-.86,4-1.58,5.28-2.1A8.37,8.37,0,0,1,171.6,329.49Z"/><path class="cls-5" d="M202.8,353.64c.15.27-4.58,2.36-8.7,7s-5.79,9.49-6.06,9.36a8.43,8.43,0,0,1,1-3.2,25.62,25.62,0,0,1,10.71-11.86A8.61,8.61,0,0,1,202.8,353.64Z"/><path class="cls-5" d="M234.53,384.66c-.22-.05.8-4.42,3.45-9.24s5.76-8,5.93-7.88-2.54,3.6-5.11,8.33S234.8,384.75,234.53,384.66Z"/><path class="cls-5" d="M184.52,211.22c0,.25-5.51,1.47-12.41,2.72s-12.53,2.05-12.57,1.8S165,214.27,172,213,184.47,211,184.52,211.22Z"/><path class="cls-5" d="M268.52,215c0,.26-7.73-.44-17.2-1.57s-17.13-2.24-17.1-2.5,7.73.45,17.21,1.58S268.55,214.79,268.52,215Z"/><path class="cls-5" d="M275.7,254.11a4.31,4.31,0,0,1-1.1.08l-3.15,0-11.58,0c-9.77,0-23.28.08-38.18.46s-28.4,1-38.17,1.51l-11.56.61-3.14.13a5.43,5.43,0,0,1-1.1,0,4.84,4.84,0,0,1,1.08-.17l3.14-.32c2.72-.25,6.67-.56,11.55-.9,9.75-.68,23.25-1.4,38.17-1.78s28.44-.36,38.22-.18c4.89.08,8.84.19,11.58.31l3.14.15A5.06,5.06,0,0,1,275.7,254.11Z"/><path class="cls-5" d="M276.73,303.59c0,.26-23,2-51.42,3.85s-51.46,3.18-51.48,2.93,23-2,51.42-3.86S276.71,303.33,276.73,303.59Z"/><path class="cls-5" d="M274.28,347.18a9.45,9.45,0,0,1-1.94.83c-1.26.48-3.11,1.12-5.41,1.87-4.6,1.5-11,3.38-18.2,5.11s-13.75,3-18.53,3.72c-2.39.37-4.33.64-5.67.79a8.74,8.74,0,0,1-2.1.14,10.09,10.09,0,0,1,2-.5l5.62-1.08c4.74-.92,11.27-2.25,18.43-4s13.58-3.5,18.22-4.84l5.49-1.59A9,9,0,0,1,274.28,347.18Z"/><path class="cls-5" d="M311.1,268.17c.06.25-7.42,2.4-16.72,4.8s-16.88,4.15-16.95,3.9,7.42-2.4,16.72-4.8S311,267.92,311.1,268.17Z"/><path class="cls-5" d="M293.54,234.72c0,.26-3.27,1.07-7.4,1.81s-7.53,1.14-7.58.89,3.27-1.06,7.41-1.81S293.5,234.47,293.54,234.72Z"/><path class="cls-2" d="M167.78,245.1c-.18,0-.46-3-2.09-7.47a37.69,37.69,0,0,0-26.6-23.9c-4.65-1.15-7.67-1.1-7.66-1.29a8.72,8.72,0,0,1,2.11-.08,33.12,33.12,0,0,1,5.69.73,36.43,36.43,0,0,1,27.08,24.32,31.83,31.83,0,0,1,1.32,5.59A7.93,7.93,0,0,1,167.78,245.1Z"/><path class="cls-2" d="M272.33,221.24c.26,0,1.64,7.28,3.09,16.36s2.43,16.48,2.17,16.52-1.63-7.29-3.09-16.37S272.08,221.28,272.33,221.24Z"/><path class="cls-1" d="M370.14,485.07s67.44,18.67,70.15,19.62c4.06,1.43,3.38,16.32-2.94,16.08-3-.11-51.81,1.82-58,1.44s-24.77-7.72-24.77-7.72Z"/><path class="cls-2" d="M398.23,510.81c.34,0,.8-3.53,3-7.25s5-5.93,4.77-6.21-3.46,1.65-5.74,5.65S398,510.83,398.23,510.81Z"/><path class="cls-2" d="M391.2,507.62c.33.05,1-3.13,2.81-6.66s3.92-6,3.67-6.22-2.82,2-4.68,5.71S390.91,507.6,391.2,507.62Z"/><path class="cls-2" d="M384.6,505.85c.34,0,.08-3.39,1.58-7.13s3.91-6.06,3.67-6.3-3.15,1.83-4.72,5.89S384.33,506,384.6,505.85Z"/><path class="cls-2" d="M385.8,497.14c.12,0,.72-1.86.72-5a23.25,23.25,0,0,0-.68-5.5,24,24,0,0,0-1-3.13,3.77,3.77,0,0,0-1.08-1.65,1.8,1.8,0,0,0-2.32.11,3,3,0,0,0-.9,1.91,13.52,13.52,0,0,0-.09,1.78,15.12,15.12,0,0,0,.42,3.3A19.92,19.92,0,0,0,383,494.1c1.57,2.73,2.93,4.13,3,4.06s-1-1.68-2.33-4.43a22.21,22.21,0,0,1-1.76-5,14.61,14.61,0,0,1-.33-3.08c0-1,0-2.33.62-2.83a.66.66,0,0,1,.89-.07,2.75,2.75,0,0,1,.74,1.18,23.24,23.24,0,0,1,1,3,26.8,26.8,0,0,1,.9,5.27C385.92,495.2,385.62,497.11,385.8,497.14Z"/><path class="cls-2" d="M385.72,496.45c0-.12-1.6-.68-4.35-.7a19.5,19.5,0,0,0-4.79.59,10.57,10.57,0,0,0-2.76,1,2.84,2.84,0,0,0-1.52,3.08,3.35,3.35,0,0,0,2.43,2.41,6.2,6.2,0,0,0,3,0,11.5,11.5,0,0,0,4.38-2.15c2.16-1.7,3.21-3,3.13-3.09s-1.39,1-3.59,2.43a12,12,0,0,1-4.14,1.8,5.41,5.41,0,0,1-2.5,0,2.29,2.29,0,0,1-1.64-1.6,1.75,1.75,0,0,1,1-1.89,10.65,10.65,0,0,1,2.45-1,21.91,21.91,0,0,1,4.54-.79C384,496.36,385.69,496.63,385.72,496.45Z"/><path class="cls-2" d="M408.6,511.53c.33,0,0-2.92,1.33-6.09s3.51-5,3.3-5.28-2.93,1.33-4.35,4.86S408.32,511.65,408.6,511.53Z"/><path class="cls-2" d="M361.53,514.64a13.91,13.91,0,0,0,2.61,1.23,58.23,58.23,0,0,0,7.51,2.32c6.45,1.63,15.65,2.55,25.75,2.44s19.21-.57,25.82-.83l7.82-.42a14,14,0,0,0,2.86-.3A14,14,0,0,0,431,519l-7.82,0-25.81.51a121.64,121.64,0,0,1-25.57-2.09C365.38,516.09,361.61,514.43,361.53,514.64Z"/><path class="cls-2" d="M359.54,516.18c.09.15,1.94-.92,5-2.29s7.7-2.91,12.77-2.12,8.68,4.19,11,6.56,3.75,4.08,3.88,4-1-1.88-3.3-4.51a25.83,25.83,0,0,0-4.47-4.18,15.91,15.91,0,0,0-7-3,22.3,22.3,0,0,0-13.27,2.52C361.16,514.75,359.47,516.07,359.54,516.18Z"/><path class="cls-1" d="M290.31,469.41s-63.83,41.79-66.11,43.52c-3.44,2.6.5,15,6.46,12.82,2.81-1,56.37-15.91,62.13-18.15s21.26-14.88,21.26-14.88Z"/><path class="cls-2" d="M271.35,502.47c.28-.06-.85-3.75-4.27-6.84s-7.15-3.91-7.19-3.63,3.27,1.54,6.43,4.47S271.05,502.61,271.35,502.47Z"/><path class="cls-2" d="M277.09,497.29c.27-.1-1-3.31-3.89-6.28s-6.09-4.28-6.2-4,2.64,2,5.39,4.81S276.79,497.45,277.09,497.29Z"/><path class="cls-2" d="M282.83,493.6c.29,0,0-3.65-2.79-7s-6.24-4.46-6.29-4.18,2.91,1.75,5.42,4.89S282.5,493.69,282.83,493.6Z"/><path class="cls-2" d="M279.05,485.67c.17-.08-.71-1.81-1.45-4.78a27.78,27.78,0,0,1-.75-5.29,25.67,25.67,0,0,1,.07-3.14,3,3,0,0,1,.35-1.35.64.64,0,0,1,.87-.2c.73.29,1.11,1.53,1.45,2.51a14.61,14.61,0,0,1,.63,3,22.28,22.28,0,0,1-.16,5.32c-.45,3-1.05,4.87-.87,4.92s1-1.7,1.65-4.79a19.72,19.72,0,0,0,.42-5.54,15.12,15.12,0,0,0-.61-3.27,13.09,13.09,0,0,0-.62-1.67,3,3,0,0,0-1.44-1.55,1.8,1.8,0,0,0-2.24.6,3.81,3.81,0,0,0-.53,1.9,22.57,22.57,0,0,0,0,3.29,23.77,23.77,0,0,0,1,5.45C277.8,484.12,278.94,485.73,279.05,485.67Z"/><path class="cls-2" d="M278.92,485c.08.16,1.58-.6,4.15-1.22a22.8,22.8,0,0,1,4.57-.63,10.35,10.35,0,0,1,2.62.17,1.74,1.74,0,0,1,1.53,1.49,2.29,2.29,0,0,1-1.08,2,5.27,5.27,0,0,1-2.37.8,12.24,12.24,0,0,1-4.49-.45c-2.54-.73-4.09-1.4-4.16-1.23s1.35,1,3.92,2a11.55,11.55,0,0,0,4.83.72,6.14,6.14,0,0,0,2.89-.91,3.37,3.37,0,0,0,1.58-3,2.85,2.85,0,0,0-2.39-2.48,10.55,10.55,0,0,0-2.93-.13,19.88,19.88,0,0,0-4.74.9C280.23,483.85,278.85,484.88,278.92,485Z"/><path class="cls-2" d="M238.79,523.42c.07.1,1.07-.65,1.56-2.47a9.43,9.43,0,0,0-1.2-6.93,26,26,0,0,0-2.13-3.19,11.93,11.93,0,0,0-2.17-2.32,3.75,3.75,0,0,0-2-.85c-.53,0-.81.1-.8.17a6.1,6.1,0,0,1,2.32,1.29,13.91,13.91,0,0,1,1.84,2.33,34.77,34.77,0,0,1,2,3.11,9.87,9.87,0,0,1,1.41,6.23C239.33,522.44,238.64,523.31,238.79,523.42Z"/><path class="cls-2" d="M261.7,506.3c.3,0,.21-3.21-2.25-6.11s-5.59-3.6-5.61-3.31,2.57,1.37,4.75,4S261.37,506.37,261.7,506.3Z"/><path class="cls-2" d="M307.49,495a23.42,23.42,0,0,0-2.81,1.93,80.79,80.79,0,0,1-7.87,4.82,104.13,104.13,0,0,1-12.5,5.57c-4.83,1.8-10.25,3.5-16,5.16-11.49,3.3-21.88,6.33-29.38,8.58l-8.87,2.73a19.84,19.84,0,0,0-3.21,1.14,18.39,18.39,0,0,0,3.33-.72l9-2.38c7.56-2.06,18-5,29.47-8.27,5.75-1.66,11.19-3.4,16-5.27a94.92,94.92,0,0,0,12.52-5.84,62.5,62.5,0,0,0,7.74-5.17A17.2,17.2,0,0,0,307.49,495Z"/><path class="cls-2" d="M309.85,495.83c0-.12-2-.87-5.41-1.44A22.41,22.41,0,0,0,291,496a16,16,0,0,0-5.74,4.93,26.61,26.61,0,0,0-3,5.35c-1.35,3.19-1.9,5.25-1.78,5.3s1-1.91,2.5-5,3.91-7.31,8.52-9.6,9.47-2.18,12.8-1.85S309.81,496,309.85,495.83Z"/><path class="cls-2" d="M423,364.91s19.14,6.83,19.22,28.3c.16,41.13-83.09,86.46-83.09,86.46l-110.78-73.4-6.94-2.81S390.94,347.28,423,364.91Z"/><path class="cls-5" d="M304.46,443.34a20.7,20.7,0,0,0,2.88-2c1.82-1.31,4.41-3.27,7.58-5.72,6.34-4.9,15-11.85,24.26-19.82s17.45-15.45,23.26-21c2.9-2.76,5.23-5,6.8-6.62a20.84,20.84,0,0,0,2.37-2.56,20.22,20.22,0,0,0-2.67,2.24l-7,6.35C356,399.65,347.71,407,338.44,415s-17.81,15-24,20.05l-7.35,6A19.84,19.84,0,0,0,304.46,443.34Z"/><path class="cls-5" d="M391.71,380.28c.05-.28-4.9-.76-10.67,1s-9.68,4.77-9.49,5,4.22-2.28,9.81-3.9S391.72,380.62,391.71,380.28Z"/><path class="cls-5" d="M382.17,373.8c-.1-.27-3.65,1.29-6.57,4.94s-3.72,7.42-3.44,7.46,1.53-3.34,4.32-6.76S382.35,374.09,382.17,373.8Z"/><path class="cls-2" d="M429.08,504c.06-.13-1.32-.4-2.86.87a10.35,10.35,0,0,0-3.2,6.43,12.76,12.76,0,0,0,1,7.09c.79,1.68,1.65,2.47,1.74,2.39s-.45-1-1-2.69a14.49,14.49,0,0,1-.63-6.64,11.13,11.13,0,0,1,2.62-6C427.93,504.24,429.1,504.19,429.08,504Z"/><path class="cls-6" d="M415.07,306.49l-31.52,84.9a12.24,12.24,0,0,1-11.63,8l-173.48-2.29V383.9l64.37,2.35,27.33-84.74a6.94,6.94,0,0,1,6.61-4.8l111.9.33A6.92,6.92,0,0,1,415.07,306.49Z"/><path class="cls-2" d="M415.07,306.49s0-.09.07-.26.16-.44.22-.79a6.78,6.78,0,0,0-.07-3.19,6.91,6.91,0,0,0-3.05-4.1,6.7,6.7,0,0,0-3.15-1c-1.19,0-2.49,0-3.85,0l-46.69-.05L325.84,297l-18.38,0-9.65,0a7.55,7.55,0,0,0-4.62,1,6.73,6.73,0,0,0-2.87,3.78c-8.26,25.62-17.44,54.13-27.25,84.6l-.06.19h-.21l-64.37-2.34.29-.28v13.18l-.28-.28,109.1,1.47,47.42.65,10.93.15,5.31.07a12.78,12.78,0,0,0,5.05-.73,12,12,0,0,0,6.95-6.7l3.38-9c8.8-23.58,15.9-42.62,20.81-55.79,2.46-6.56,4.36-11.64,5.67-15.12s2-5.26,2-5.26-.64,1.83-1.91,5.3-3.16,8.58-5.57,15.15c-4.87,13.19-11.92,32.25-20.64,55.86l-3.38,9.07a12.42,12.42,0,0,1-7.18,6.93,12.86,12.86,0,0,1-5.19.77l-5.32-.06L355,399.37l-47.42-.6-109.09-1.41h-.28V383.61h.29L262.82,386l-.27.19c9.84-30.46,19.05-59,27.32-84.58a7.2,7.2,0,0,1,3.07-4,8.08,8.08,0,0,1,4.87-1.08l9.65,0,18.38.07,32.71.13,46.69.21c1.37,0,2.65,0,3.86.05a6.93,6.93,0,0,1,3.22,1,7,7,0,0,1,3.06,4.2,6.83,6.83,0,0,1,0,3.23A8.15,8.15,0,0,1,415.07,306.49Z"/><path class="cls-7" d="M338.14,338.6c2.25-1.53,6.41-.92,8.43.9a6.8,6.8,0,0,1,1.65,7.47,7.37,7.37,0,0,1-6.33,4.42,6.66,6.66,0,0,1-6.7-4.42c-.8-2.77.09-6.91,2.95-8.37"/><path class="cls-2" d="M377.8,484.29S221.46,384.15,214.56,380.22c-5.88-3.35-21.58-13-37.07-8.74s-29.38,18.15-36.32,38.45c-4,11.59-5.84,31.38-6.72,46.21-1,17.74,4.44,35.43,16,48.89,5.28,6.12,11.8,11.45,19.52,13.85q2.44.76,5.06,1.33c29.59,6.41,60-6.87,76.63-32.18l3.65-5.56s102.39,37.62,104,37.08Z"/><path class="cls-5" d="M222.63,385.76s-.15-.06-.4-.23l-1.09-.74c-1-.67-2.37-1.64-4.22-2.84a82.72,82.72,0,0,0-16.61-8.43,44.72,44.72,0,0,0-12.5-2.64,36.05,36.05,0,0,0-14.39,2.35,46.42,46.42,0,0,0-13.82,8.38,64.59,64.59,0,0,0-6.14,6,44.89,44.89,0,0,0-5.07,7.22A74.43,74.43,0,0,0,141.64,411c-1.47,5.45-2.65,10.84-3.77,15.93a145.37,145.37,0,0,0-3.6,27.43,99.2,99.2,0,0,0,1.42,18.59c.34,2.19.73,3.86,1,5,.1.52.18.95.25,1.3a2.38,2.38,0,0,1,.06.45,1.37,1.37,0,0,1-.15-.43c-.09-.34-.21-.76-.35-1.28-.29-1.13-.74-2.79-1.14-5a93.9,93.9,0,0,1-1.72-18.67,141.34,141.34,0,0,1,3.42-27.6c1.1-5.12,2.25-10.47,3.73-16a74.51,74.51,0,0,1,6.82-16.32,45.38,45.38,0,0,1,5.19-7.37,63,63,0,0,1,6.24-6.11,47.12,47.12,0,0,1,14.11-8.5,36.58,36.58,0,0,1,14.73-2.31,44.79,44.79,0,0,1,12.69,2.79,78.3,78.3,0,0,1,16.58,8.75c1.83,1.24,3.21,2.27,4.13,3l1,.83A2.18,2.18,0,0,1,222.63,385.76Z"/><path class="cls-5" d="M184.16,456s.29.15.86.38l2.56,1,9.93,3.82,36.87,13.89c15.67,5.84,34.43,12.79,55.48,20.45s44.39,16.06,69.31,24.49l.45.16.22-.43,12.23-23.35,6.23-11.91.24-.46-.43-.27L258.71,408,222.85,385.4l-9.74-6.07-2.54-1.56c-.58-.34-.89-.5-.89-.5s.27.22.83.59l2.49,1.65,9.63,6.25,35.67,22.92,119.2,76.08-.2-.73-6.23,11.91-12.22,23.35.67-.27c-24.9-8.41-48.25-16.77-69.32-24.36l-55.56-20.22-37-13.57-10-3.64-2.6-.92C184.47,456.11,184.16,456,184.16,456Z"/><path class="cls-1" d="M192.26,123.8c-2.73-5.36-5.48-10.78-6.95-16.62s-1.56-12.21.92-17.69c1.46-3.2,3.75-6,4.89-9.34,1.57-4.58.93-10,3.77-13.91,4.43-6.13,13.91-4.7,20.76-7.91,5.34-2.51,9.07-7.9,14.68-9.7,4.91-1.58,10.25-.07,15,2s9.35,4.61,14.45,5.27c3.64.48,7.34,0,11,0s7.57.89,10.15,3.5,3.13,7.43.33,9.8c6.42-1.09,12.47,5.32,12.39,11.84s-5,12.24-10.92,15-12.68,2.89-19.18,2.38c-18.38-1.43-36.85-8.42-49.37-22"/><path class="cls-8" d="M196.22,100.8l-12.53,91a27.34,27.34,0,0,0,24.69,31h0a27.35,27.35,0,0,0,29.47-23.55c.94-6.85,1.73-12.56,1.87-13.26,0,0,23.48,1,28.3-21.7,2.34-11,5.3-34,7.75-54.79a43.24,43.24,0,0,0-34.49-47.41l-2.2-.44C215.13,58.29,198.9,76.76,196.22,100.8Z"/><path class="cls-9" d="M239.83,185.65s-14.62-1.71-28-14.36c0,0,3.74,17.78,26.86,20.26Z"/><path class="cls-2" d="M265.56,128.83a3.32,3.32,0,0,1-3.79,2.66,3.17,3.17,0,0,1-2.76-3.6,3.31,3.31,0,0,1,3.78-2.66A3.17,3.17,0,0,1,265.56,128.83Z"/><path class="cls-2" d="M268.65,119.68c-.49.34-2.59-2-6.09-2.67s-6.41.55-6.71,0c-.14-.23.42-.91,1.7-1.5A9.05,9.05,0,0,1,263,115a8.69,8.69,0,0,1,4.74,2.65C268.67,118.69,268.88,119.53,268.65,119.68Z"/><path class="cls-2" d="M232.94,123.2a3.3,3.3,0,0,1-3.79,2.65,3.16,3.16,0,0,1-2.76-3.6,3.31,3.31,0,0,1,3.78-2.65A3.17,3.17,0,0,1,232.94,123.2Z"/><path class="cls-2" d="M234.14,113.46c-.49.34-2.59-2-6.09-2.66s-6.41.55-6.71,0c-.15-.23.41-.91,1.7-1.5a9.12,9.12,0,0,1,5.47-.56,8.76,8.76,0,0,1,4.74,2.65C234.16,112.47,234.37,113.31,234.14,113.46Z"/><path class="cls-2" d="M241.65,141.93c0-.2,2.27-.14,5.88.11.91.09,1.79.08,2.07-.5a4.66,4.66,0,0,0-.07-2.76q-.61-3.5-1.28-7.33c-1.74-10.42-2.8-18.91-2.38-19s2.16,8.32,3.9,18.74c.4,2.57.79,5,1.16,7.35.14,1.08.49,2.35-.24,3.6a2.27,2.27,0,0,1-1.73,1,6.22,6.22,0,0,1-1.55-.09C243.82,142.56,241.62,142.13,241.65,141.93Z"/><path class="cls-2" d="M230.87,142.3c.57.08-.18,3.87,2.53,7.22s6.84,3.73,6.76,4.27c0,.25-1,.56-2.76.26a9.64,9.64,0,0,1-5.69-3.35,8.41,8.41,0,0,1-1.88-6C230,143.08,230.61,142.22,230.87,142.3Z"/><path class="cls-1" d="M237.78,99.93c-.54.88-3.94-.26-8.14-.59s-7.75.13-8.12-.83c-.16-.46.59-1.24,2.11-1.89A14.19,14.19,0,0,1,236,97.7C237.41,98.61,238,99.51,237.78,99.93Z"/><path class="cls-1" d="M269.38,109.3c-.77.67-3-.64-5.91-1.26s-5.45-.53-5.85-1.48c-.17-.45.38-1.17,1.6-1.7a8.75,8.75,0,0,1,9.48,2.2C269.56,108.08,269.73,109,269.38,109.3Z"/><path class="cls-8" d="M194.71,118c-.36-.24-14.72-7.75-17.33,7.91S191,141,191.13,140.54,194.71,118,194.71,118Z"/><path class="cls-9" d="M187.34,133.81c-.06-.06-.31.15-.8.28a2.79,2.79,0,0,1-2-.3c-1.55-.88-2.51-3.74-2.11-6.57a9.16,9.16,0,0,1,1.41-3.78,3.17,3.17,0,0,1,2.41-1.75,1.4,1.4,0,0,1,1.48,1c.14.47,0,.77.06.81s.38-.21.37-.87a1.85,1.85,0,0,0-.46-1.09,2.09,2.09,0,0,0-1.44-.65,3.86,3.86,0,0,0-3.25,2,9.29,9.29,0,0,0-1.68,4.2c-.42,3.17.7,6.4,2.85,7.43a3,3,0,0,0,2.57,0C187.25,134.18,187.39,133.85,187.34,133.81Z"/><path class="cls-1" d="M280.28,88.34c-2.69,5.79-16.51,8-26.64,5-9.33-2.82-12.72-8.75-18.66-13.92-3.76-3.27-3.76-3.27-9.89-3.9-5-.51-8.94,4.43-12.69,7.71,2.09,12.45-3.45,24.77-8.84,36.17A6.28,6.28,0,0,1,201,122.6c-2.12,1.05-4.66-.61-5.93-2.61-2-3.2-2.27-7.19-2.19-11A65.34,65.34,0,0,1,198.1,83.8a44.46,44.46,0,0,1,16.37-19.61c9.11-5.78,20.6-7.43,31.15-5.16a51.73,51.73,0,0,1,27.3,16.39c3.33,3.75,6.22,8,7.36,12.92"/><path class="cls-2" d="M248.42,126.2c.13,0,.08-1.35.71-3.64a15.14,15.14,0,0,1,5.54-8,14.74,14.74,0,0,1,13.86-2,14.36,14.36,0,0,1,6.74,5.1,14.48,14.48,0,0,1,0,17.17,14.36,14.36,0,0,1-6.74,5.1,14.74,14.74,0,0,1-13.86-2,15.14,15.14,0,0,1-5.54-8c-.63-2.28-.58-3.64-.71-3.63s-.07.33-.08,1a11.88,11.88,0,0,0,.31,2.79,15.09,15.09,0,0,0,5.48,8.64,15.67,15.67,0,1,0,0-24.8,15.06,15.06,0,0,0-5.48,8.64,11.76,11.76,0,0,0-.31,2.78C248.35,125.86,248.37,126.2,248.42,126.2Z"/><path class="cls-2" d="M211.27,119.71c.14,0,.09-1.35.72-3.64a15.08,15.08,0,0,1,5.54-8,14.73,14.73,0,0,1,13.86-2,14.5,14.5,0,0,1,6.74,5.09,14.49,14.49,0,0,1,0,17.18,14.45,14.45,0,0,1-6.74,5.09,14.73,14.73,0,0,1-13.86-2,15.08,15.08,0,0,1-5.54-8.05c-.63-2.29-.58-3.65-.72-3.64a2.81,2.81,0,0,0-.07,1,11.32,11.32,0,0,0,.31,2.79,15.09,15.09,0,0,0,5.48,8.64A15.6,15.6,0,0,0,239.13,129a15.64,15.64,0,0,0,0-18.64A15.6,15.6,0,0,0,217,107.31a15.09,15.09,0,0,0-5.48,8.64,11.32,11.32,0,0,0-.31,2.79A2.81,2.81,0,0,0,211.27,119.71Z"/><path class="cls-2" d="M241.88,120.24c.15.31,2.14-.62,4.46.09s3.47,2.56,3.77,2.38c.15-.06.08-.66-.45-1.45a5.58,5.58,0,0,0-6.61-2C242.18,119.64,241.79,120.1,241.88,120.24Z"/><path class="cls-2" d="M190.23,115.7c0,.35,5,.56,11.15.47s11.14-.44,11.14-.79-5-.56-11.16-.47S190.23,115.35,190.23,115.7Z"/><path class="cls-7" d="M287.59,73.4a4.51,4.51,0,0,1-.25,1.49A7.31,7.31,0,0,1,285,78.26a10.38,10.38,0,0,1-5.63,2.3,27.79,27.79,0,0,1-7.47-.39,125.52,125.52,0,0,1-13.29-2.68c-1.68-.44-3-.82-4-1.11L253.59,76a2.09,2.09,0,0,1-.37-.14,1.55,1.55,0,0,1,.39.07l1.08.27,4,1C262,78,266.72,79,272,79.8a28.58,28.58,0,0,0,7.38.42,10.26,10.26,0,0,0,5.5-2.16,7.54,7.54,0,0,0,2.38-3.22C287.53,73.94,287.54,73.39,287.59,73.4Z"/><path class="cls-7" d="M291.06,77a14.43,14.43,0,0,1-1.34,4.28,18.34,18.34,0,0,1-17.66,10.56,14.26,14.26,0,0,1-4.41-.85,10.64,10.64,0,0,1,1.18.23,20.73,20.73,0,0,0,3.24.36,18.63,18.63,0,0,0,17.41-10.41,21,21,0,0,0,1.22-3A8.72,8.72,0,0,1,291.06,77Z"/></svg>