<svg id="Layer_1" data-name="Layer 1" xmlns="http://www.w3.org/2000/svg" viewBox="0 0 1920 1080"><defs><style>.cls-1{fill:#c0d8fb;}.cls-2{fill:#dfebfd;}.cls-3{fill:#b7d3f3;}</style></defs><rect class="cls-1" x="946.88" y="807.67" width="120.12" height="116.53" rx="15.39"/><rect class="cls-2" x="952.09" y="812.72" width="109.71" height="106.44" rx="14.06"/><circle class="cls-3" cx="1006.94" cy="823.36" r="2.49"/><path class="cls-3" d="M1024.53,826.87a2.49,2.49,0,1,1,1,3.39A2.48,2.48,0,0,1,1024.53,826.87Z"/><path class="cls-3" d="M1041.73,840.54A2.49,2.49,0,1,1,1041,844,2.49,2.49,0,0,1,1041.73,840.54Z"/><path class="cls-3" d="M1050.25,861.69a2.49,2.49,0,1,1-2.49,2.49A2.49,2.49,0,0,1,1050.25,861.69Z"/><path class="cls-3" d="M1045.9,886.24a2.49,2.49,0,1,1-3.52,0A2.49,2.49,0,0,1,1045.9,886.24Z"/><path class="cls-3" d="M1030.28,901.9a2.49,2.49,0,1,1-3.52,0A2.49,2.49,0,0,1,1030.28,901.9Z"/><path class="cls-3" d="M1004.45,910a2.49,2.49,0,1,1,2.49,2.49A2.49,2.49,0,0,1,1004.45,910Z"/><path class="cls-3" d="M989.27,826.87a2.49,2.49,0,1,0-1,3.39A2.48,2.48,0,0,0,989.27,826.87Z"/><path class="cls-3" d="M972.07,840.54a2.49,2.49,0,1,0,.74,3.44A2.5,2.5,0,0,0,972.07,840.54Z"/><path class="cls-3" d="M963.55,861.69a2.49,2.49,0,1,0,2.49,2.49A2.5,2.5,0,0,0,963.55,861.69Z"/><path class="cls-3" d="M967.9,886.24a2.49,2.49,0,1,0,3.52,0A2.49,2.49,0,0,0,967.9,886.24Z"/><circle class="cls-3" cx="985.29" cy="903.66" r="2.49"/><path class="cls-3" d="M1006.27,864.18a2.49,2.49,0,1,1,2.49,2.49A2.49,2.49,0,0,1,1006.27,864.18Z"/><rect class="cls-3" x="1008.42" y="833.1" width="0.68" height="31.08"/><rect class="cls-3" x="1006.21" y="856.65" width="20.95" height="2.04" transform="translate(-312.62 810.81) rotate(-38.13)"/></svg>